/* XPM */
static char *nether_wart_block1737462706[] = {
/* columns rows colors chars-per-pixel */
"16 16 36 1 ",
"  c #530303",
". c #550303",
"X c #570303",
"o c #590303",
"O c #5D0303",
"+ c #5F0303",
"@ c #600404",
"# c #620404",
"$ c #640404",
"% c #660404",
"& c #6A0404",
"* c #6B0505",
"= c #6D0505",
"- c #6F0505",
"; c #700404",
": c #720606",
"> c #760606",
", c #780606",
"< c #7A0808",
"1 c #7C0808",
"2 c #7E0808",
"3 c #810909",
"4 c #820A0A",
"5 c #840A0A",
"6 c #880A0A",
"7 c #8A0A0A",
"8 c #8C0A0A",
"9 c #910B0B",
"0 c #930D0D",
"q c #950D0D",
"w c #9B0F0F",
"e c #9F1518",
"r c #A81A1D",
"t c #B51F22",
"y c #BF2327",
"u c #CA3034",
/* pixels */
" ...-66626ur %O ",
"-:*-ou8988q.O>&&",
":5<1:%q98q# >w>,",
"51<65-%66OoOqu2,",
"0u38to.   .#O962",
"9w8qO$*$>&-*.688",
"98woo51>6,1u,.q8",
"qqoo.>::5>5e>&.8",
"   O.,,1r168.%oo",
":##-:$1,639o#;&&",
"9>165#*3u9Oo%3>;",
"q1r8,# ..  o96>u",
"q5r9. %O#o%#o985",
"w6qO*:-&2&&2.>88",
"wq$.82,,9>26e 59",
">Oo$w5,r5266O  %"
};
