/* XPM */
static char *quartz_ore21737462707[] = {
/* columns rows colors chars-per-pixel */
"16 16 108 2 ",
"   c #0C0303",
".  c #0F0203",
"X  c #120303",
"o  c #160203",
"O  c #130304",
"+  c #150304",
"@  c #180201",
"#  c #1D0300",
"$  c #1F0300",
"%  c #200300",
"&  c #230300",
"*  c #270400",
"=  c #290400",
"-  c #2A0400",
";  c #2A0502",
":  c #2F0400",
">  c #320500",
",  c #370500",
"<  c #3B0600",
"1  c #3D0600",
"2  c #460700",
"3  c #4B0700",
"4  c #510800",
"5  c #5D1A1A",
"6  c #680800",
"7  c #780900",
"8  c #72160F",
"9  c #7F120A",
"0  c #671911",
"q  c #651815",
"w  c #69251E",
"e  c #551F21",
"r  c #512127",
"t  c #522428",
"y  c #542429",
"u  c #58242A",
"i  c #5B272D",
"p  c #5F272D",
"a  c #5D272E",
"s  c #632A32",
"d  c #6E2F36",
"f  c #7A3731",
"g  c #713139",
"h  c #75333A",
"j  c #75353A",
"k  c #78333B",
"l  c #7C353D",
"z  c #7C383E",
"x  c #7F3541",
"c  c #840A00",
"v  c #810E06",
"b  c #810F07",
"n  c #8C0A00",
"m  c #880E04",
"M  c #880E05",
"N  c #811109",
"B  c #8D1E16",
"V  c #843941",
"C  c #883844",
"Z  c #883C44",
"A  c #8C3D44",
"S  c #8C3D46",
"D  c #903E47",
"F  c #903F48",
"G  c #904147",
"H  c #92454B",
"J  c #96464C",
"K  c #9A454E",
"L  c #9A484D",
"P  c #AC4F45",
"I  c #A55046",
"U  c #A74B53",
"Y  c #A74855",
"T  c #A95257",
"R  c #A95D57",
"E  c #A95059",
"W  c #AE525A",
"Q  c #AE555C",
"!  c #B75760",
"~  c #B75563",
"^  c #B75865",
"/  c #BB5A66",
"(  c #966D70",
")  c #BB6068",
"_  c #CA6874",
"`  c #D59D9D",
"'  c #CCA4A9",
"]  c #D3A0A3",
"[  c #D0A8AB",
"{  c #D0A9AC",
"}  c #D1A8AD",
"|  c #D4ABB1",
" . c #D7B1B6",
".. c #D9B3B8",
"X. c #DCB6BB",
"o. c #DCB9BC",
"O. c #DEB8BD",
"+. c #E2BCBE",
"@. c #E3C0C5",
"#. c #E3C2C5",
"$. c #E7C6CA",
"%. c #E6C8CC",
"&. c #E7C9CE",
"*. c #EACECF",
"=. c #ECCED2",
"-. c #EFD3D7",
";. c #EFDBDE",
":. c #F9DEE2",
/* pixels */
"& * = * v D C k A z G j $ 4 2 & ",
"9 8 M 9 o ~ G J z G ~ = 1 e M v ",
"q d y u 9 * W J K / 1 & a h t r ",
"k s y x V   1 L Y 1 @ 1 Q A a y ",
"U a s A l + * $ & & > 2 1 E Z p ",
"W C A / 1 0 M [ ` ( M B = Z G G ",
"~ F ) : ' ' [ [ o.} ' @.&.+ ! F ",
"^ ~ > o ;.#.[ ] X.` X.@.&.X & F ",
": o & 1 = $.X.[ +. .O.=.f 3 < X ",
"9 3 c v , w ;.| $...-.I X q M n ",
"Z r t x G O R :.$.=.P @ 3 h e 8 ",
"L p x G i O $ $ = $ & + ~ Z a t ",
"T j Z ! = & 7 4 4 : 6 3 = ~ A g ",
"/ Z / 3 M N N M s M N t & r G A ",
"/ / 4 @ C y M y Y t t Z 5 $ g K ",
"5 3 O O _ V y a V y x H 2 $ $ 6 "
};
