/* XPM */
static char *quartz_ore1737462706[] = {
/* columns rows colors chars-per-pixel */
"16 16 118 2 ",
"   c #0C0303",
".  c #0F0203",
"X  c #120303",
"o  c #160203",
"O  c #150304",
"+  c #180201",
"@  c #1D0300",
"#  c #1F0300",
"$  c #210300",
"%  c #230300",
"&  c #270400",
"*  c #290400",
"=  c #290502",
"-  c #2D0400",
";  c #2F0400",
":  c #370500",
">  c #360702",
",  c #3F0600",
"<  c #370A05",
"1  c #3E0802",
"2  c #460700",
"3  c #4B0700",
"4  c #4D0700",
"5  c #400903",
"6  c #510800",
"7  c #51140E",
"8  c #680800",
"9  c #780900",
"0  c #75140E",
"q  c #7F120A",
"w  c #671911",
"e  c #651816",
"r  c #69251E",
"t  c #652220",
"y  c #75352F",
"u  c #840A00",
"i  c #810E06",
"p  c #8C0A00",
"a  c #880E05",
"s  c #890F05",
"d  c #811109",
"f  c #8B1309",
"g  c #8C1309",
"h  c #8D1E16",
"j  c #8F3C34",
"k  c #82555B",
"l  c #8D565D",
"z  c #AC4F45",
"x  c #A55046",
"c  c #AA5E58",
"v  c #936469",
"b  c #A76C72",
"n  c #A47478",
"m  c #A6797B",
"M  c #B0747A",
"N  c #C06862",
"B  c #D47971",
"V  c #AC8488",
"C  c #B2898E",
"Z  c #C89494",
"A  c #C3999A",
"S  c #D59D9D",
"D  c #E7918A",
"F  c #C29CA1",
"G  c #C49CA2",
"H  c #D299A0",
"J  c #C6A3A6",
"K  c #C8A1A6",
"L  c #CFACAF",
"P  c #D3A0A3",
"I  c #D6A5A4",
"U  c #D3A2A9",
"Y  c #D9A7AC",
"T  c #D0A8AB",
"R  c #D1A8AD",
"E  c #D3A8AD",
"W  c #D0ABAF",
"Q  c #DBA8AC",
"!  c #CFABB1",
"~  c #D2AFB3",
"^  c #DAAFB2",
"/  c #D3B0B5",
"(  c #D3B0B6",
")  c #D4B1B7",
"_  c #D7B5B8",
"`  c #D7B7BB",
"'  c #D9B3B8",
"]  c #DEB1B8",
"[  c #DCB6BB",
"{  c #D7B9BC",
"}  c #D9BBBE",
"|  c #DEB8BD",
" . c #DABCBF",
".. c #E0B4BB",
"X. c #E2BCBE",
"o. c #DDBDC2",
"O. c #DCBFC2",
"+. c #E3BBC0",
"@. c #E6BCC1",
"#. c #DEC2C5",
"$. c #E3C2C5",
"%. c #E0C2C6",
"&. c #E3C7CA",
"*. c #E7C6CA",
"=. c #E2C8CA",
"-. c #E3CBCD",
";. c #E4CCCD",
":. c #E9C9CC",
">. c #EBCCD0",
",. c #EAD2D4",
"<. c #EFD3D7",
"1. c #EBD7D7",
"2. c #EDD7D9",
"3. c #F1D6DA",
"4. c #F0DADE",
"5. c #F2DDDF",
"6. c #F5DEE0",
"7. c #F9DEE2",
/* pixels */
"% & * & N &.#. .&.o.&.n % 6 2 % ",
"W ) a q o ] =.;.#.=.Y * , n a ) ",
") ` W C i & ^ ;.=.X.5 # v } ! G ",
" .) W o./   5  .U 5 + , | &./ L ",
",.~ ~ &.~ o * # % % : 2 , W &.~ ",
"2.%.&.@.1 w a 9 t a a h & b &.&.",
"4.&.3.< J K d 0 { R W @.-.o Y &.",
">...> o 5.%.E P [ S } @.&.  % M ",
"* o % , * =.' L X.^ | >.y 3 > O ",
"q 4 u i > r 3./ &.' <.x . e a p ",
"x K L o._ o c 7.&.>.z # 3 K A ~ ",
";.~ o.&.V X # % - # % O H #.~ G ",
"1.o.#.:.; # 9 6 6 ; 8 3 - 4.&.{ ",
"5.%.5.7 ( W d f ) a i K # k &.&.",
"6.6.j + ( L ! f ,.! ! #.Z # l -.",
"I N + X 5.#.L ( #.! O.-.B # # D "
};
