/* XPM */
static char *soul_sand1737462707[] = {
/* columns rows colors chars-per-pixel */
"16 16 26 1 ",
"  c #3C2A1E",
". c #3D2C20",
"X c #3F2E22",
"o c #423022",
"O c #443224",
"+ c #463427",
"@ c #493627",
"# c #4B382A",
"$ c #4C3A2C",
"% c #4F3C2D",
"& c #513D2F",
"* c #533F32",
"= c #564133",
"- c #584537",
"; c #5B4838",
": c #5C4A3B",
"> c #5E4A3D",
", c #614C3E",
"< c #665245",
"1 c #6A5749",
"2 c #6D594B",
"3 c #7A6454",
"4 c #867060",
"5 c #947C6A",
"6 c #A18571",
"7 c #BC9C84",
/* pixels */
" ...#>>:-:73.oo ",
"#%@#.7>,>><.o*@@",
"%;*=#+<,,1O.=3*&",
":-*::@o>:...<6=*",
",6=>5.     o.<>=",
"<3>1.O+O*+@@ >>>",
"<>2.o:*&>*=7*.<>",
"<<.o.*$$;%>3#+ >",
"...X ===3->, o.o",
"$.O@@o==>;,.o%++",
",==:>.@:6<..o:*$",
"<=4>=o  .. .<>=6",
"<:3<. O.o oo.<>;",
"1:2o++#+-+#= &>>",
"21o >===,==>3 ;,",
"=O.o2;&3:=:>o  O"
};
